<?xml version="1.0" encoding="UTF-8"?>
<svg id="Layer_2" data-name="Layer 2" xmlns="http://www.w3.org/2000/svg" viewBox="0 0 35.9 63.18">
  <defs>
    <style>
      .cls-1 {
        fill: #fffef1;
      }
    </style>
  </defs>
  <g id="Layer_1-2" data-name="Layer 1">
    <path class="cls-1" d="M35.9,31.41c0-.33-.03-.66-.05-.98,0-.02,0-.05,0-.07-.03-.43-.06-.86-.12-1.28-.24-2.18-.74-3.84-1.43-5.05-2.82-6.23-9.07-10.57-16.35-10.57-1.53,0-3.01.21-4.43.57,1.16-6,2.81-12.2,4.22-14.03C13.76,2.49,0,10.26,0,30.96c0,.1,0,.19,0,.29,0,.05,0,.1,0,.16,0,.18.02.36.03.54.12,4.04.96,6.63,2.23,8.17,3.06,5.51,8.94,9.24,15.69,9.24,1.56,0,3.07-.22,4.51-.59-1.16,6.11-2.85,12.54-4.29,14.42,3.97-2.49,17.73-10.26,17.73-30.96,0-.18-.01-.35-.01-.53,0-.1.01-.19.01-.29Z"/>
  </g>
</svg>